<?xml version="1.0" standalone="no"?>
<!DOCTYPE svg PUBLIC "-//W3C//DTD SVG 20010904//EN"
 "http://www.w3.org/TR/2001/REC-SVG-20010904/DTD/svg10.dtd">
<svg version="1.0" xmlns="http://www.w3.org/2000/svg"
 width="260.000000pt" height="260.000000pt" viewBox="0 0 260.000000 260.000000"
 preserveAspectRatio="xMidYMid meet">
<metadata>
Created by potrace 1.14, written by Peter Selinger 2001-2017
</metadata>
<g transform="translate(0.000000,260.000000) scale(0.100000,-0.100000)"
fill="#000000" stroke="none">
<path d="M0 1300 l0 -1300 775 0 c426 0 775 4 775 8 0 4 -4 12 -9 18 -17 19
-31 102 -33 204 -4 136 14 145 25 13 8 -113 24 -189 45 -220 l14 -23 339 0
338 0 61 63 c79 80 95 102 162 222 108 193 108 192 108 402 l0 185 -67 68
c-38 37 -84 76 -103 85 -19 10 -53 32 -75 49 -22 18 -78 53 -125 78 -47 25
-98 52 -115 61 -16 9 -77 37 -135 62 -157 69 -163 82 -50 110 93 23 145 61
176 131 40 90 47 132 35 214 -14 101 -43 154 -95 171 -41 13 -250 15 -287 4
-21 -7 -23 -13 -38 -135 -24 -193 -51 -358 -65 -400 -8 -25 -24 -83 -36 -130
-12 -47 -29 -101 -37 -120 -8 -19 -21 -58 -29 -86 -7 -28 -22 -66 -33 -85 -33
-56 -62 -159 -68 -244 -5 -76 -4 -83 19 -110 19 -22 37 -30 73 -34 69 -8 72
-31 5 -31 -47 0 -56 4 -91 39 -38 38 -39 40 -39 113 0 82 30 200 73 284 14 28
28 67 32 87 4 21 16 54 26 74 11 21 19 43 19 51 0 13 14 65 60 222 10 36 31
157 45 270 34 259 32 247 55 260 32 17 288 16 335 -2 59 -22 93 -86 107 -200
10 -78 9 -96 -7 -146 -43 -138 -87 -186 -205 -222 l-55 -17 70 -33 c39 -18 88
-40 110 -49 63 -26 182 -92 249 -138 33 -23 79 -52 101 -64 22 -11 68 -49 103
-82 l62 -61 0 842 0 842 -1300 0 -1300 0 0 -1300z m1016 853 c90 -33 105 -43
164 -103 36 -37 87 -104 114 -149 l50 -83 -33 -101 c-78 -242 -148 -327 -270
-327 -23 0 -24 -1 -18 -67 4 -38 9 -144 13 -238 7 -192 0 -236 -47 -290 l-30
-34 38 -10 c294 -78 305 -80 324 -68 16 10 22 8 40 -10 30 -30 19 -53 -25 -53
-78 0 -951 243 -984 273 -49 45 -21 129 190 577 72 151 173 367 225 480 83
179 119 239 144 240 4 0 51 -17 105 -37z"/>
<path d="M877 2067 c-17 -40 -80 -173 -138 -297 -59 -124 -104 -228 -100 -232
15 -16 330 -90 391 -91 111 -3 145 35 216 239 l45 127 -62 94 c-64 97 -121
157 -167 174 -15 6 -55 21 -90 34 l-62 24 -33 -72z"/>
<path d="M521 1308 c-88 -190 -141 -325 -141 -358 0 -11 8 -23 18 -29 9 -5
125 -39 257 -75 237 -65 240 -66 264 -48 63 47 66 59 65 240 0 92 -4 211 -8
264 l-8 97 -31 6 c-18 4 -97 25 -177 46 -80 21 -147 39 -150 39 -3 0 -43 -82
-89 -182z"/>
<path d="M2590 408 c0 -6 -35 -72 -77 -146 -55 -96 -95 -152 -135 -191 -32
-31 -58 -59 -58 -63 0 -5 63 -8 140 -8 l140 0 0 210 c0 116 -2 210 -5 210 -3
0 -5 -5 -5 -12z"/>
</g>
</svg>
